<?xml version="1.0" encoding="utf-8"?>
<!-- Generator: Adobe Illustrator 28.0.0, SVG Export Plug-In . SVG Version: 6.00 Build 0)  -->
<svg version="1.1" id="레이어_1" xmlns="http://www.w3.org/2000/svg" xmlns:xlink="http://www.w3.org/1999/xlink" x="0px"
	 y="0px" viewBox="0 0 199 637" style="enable-background:new 0 0 199 637;" xml:space="preserve">
<style type="text/css">
	.st0{fill:#99A06C;}
</style>
<path class="st0" d="M178.5,20.1c0,0,0.1,0,0.1-0.1s0-0.1-0.1-0.1c-0.1,0-0.1,0-0.1,0.1C178.4,20.1,178.4,20.1,178.5,20.1z
	 M158.7,40.1c0,0,0.2-0.1,0.2-0.2c0-0.1-0.1-0.2-0.2-0.2c-0.1,0-0.2,0.1-0.2,0.2C158.5,40,158.6,40.1,158.7,40.1z M178.5,40.3
	c0,0,0.4-0.2,0.4-0.4s-0.2-0.4-0.4-0.4s-0.4,0.2-0.4,0.4C178.1,40.1,178.3,40.3,178.5,40.3z M138.8,60c0,0,0.3-0.1,0.3-0.3
	s-0.1-0.3-0.3-0.3c-0.2,0-0.3,0.1-0.3,0.3C138.6,59.9,138.7,60,138.8,60z M158.7,60.3c0,0,0.5-0.2,0.5-0.5c0-0.3-0.2-0.5-0.5-0.5
	s-0.5,0.2-0.5,0.5C158.2,60,158.4,60.3,158.7,60.3z M178.5,60.5c0.4,0,0.7-0.3,0.7-0.7c0-0.4-0.3-0.7-0.7-0.7
	c-0.4,0-0.7,0.3-0.7,0.7C177.8,60.2,178.1,60.5,178.5,60.5z M99.2,79.7L99.2,79.7L99.2,79.7z M119,79.9c0,0,0.3-0.1,0.3-0.3
	s-0.1-0.3-0.3-0.3s-0.3,0.1-0.3,0.3S118.8,79.9,119,79.9z M138.8,80.2c0.3,0,0.6-0.2,0.6-0.6c0-0.3-0.2-0.6-0.6-0.6
	c-0.3,0-0.6,0.2-0.6,0.6C138.3,80,138.5,80.2,138.8,80.2L138.8,80.2z M158.7,80.4c0.4,0,0.8-0.3,0.8-0.7c0,0,0,0,0,0
	c0-0.4-0.3-0.8-0.7-0.8c0,0,0,0,0,0c-0.4,0-0.8,0.3-0.8,0.7c0,0,0,0,0,0C157.9,80.1,158.2,80.4,158.7,80.4L158.7,80.4z M178.5,80.7
	c0.5,0,1-0.4,1-1c0,0,0,0,0,0c0-0.5-0.4-1-1-1c0,0,0,0,0,0c-0.5,0-1,0.4-1,1c0,0,0,0,0,0C177.5,80.2,178,80.7,178.5,80.7
	C178.5,80.7,178.5,80.7,178.5,80.7z M99.2,99.8c0,0,0.3-0.1,0.3-0.3s-0.1-0.3-0.3-0.3s-0.3,0.1-0.3,0.3C98.9,99.7,99,99.8,99.2,99.8
	z M119,100.1c0.3,0,0.6-0.2,0.6-0.6c0-0.3-0.2-0.6-0.6-0.6c-0.3,0-0.6,0.2-0.6,0.6C118.5,99.9,118.7,100.1,119,100.1z M138.8,100.3
	c0.4,0,0.8-0.3,0.8-0.8c0-0.4-0.3-0.8-0.7-0.8c0,0,0,0,0,0c-0.4,0-0.8,0.3-0.8,0.7c0,0,0,0,0,0C138.1,100,138.4,100.3,138.8,100.3z
	 M158.7,100.6c0.6,0,1-0.5,1-1.1c0-0.6-0.4-1.1-1-1.1s-1,0.4-1,1.1C157.6,100.2,158.1,100.6,158.7,100.6z M178.5,100.8
	c0.7,0,1.3-0.5,1.3-1.2c0,0,0,0,0,0c0-0.7-0.5-1.3-1.2-1.3c0,0,0,0,0,0c-0.7,0-1.3,0.6-1.3,1.3C177.2,100.3,177.8,100.8,178.5,100.8
	C178.5,100.8,178.5,100.8,178.5,100.8z M79.3,119.7c0,0,0.2-0.1,0.2-0.2c0-0.1-0.1-0.2-0.2-0.2s-0.2,0.1-0.2,0.2
	C79.1,119.6,79.2,119.7,79.3,119.7L79.3,119.7z M99.2,120c0,0,0.5-0.2,0.5-0.5c0-0.3-0.2-0.5-0.5-0.5s-0.5,0.2-0.5,0.5
	C98.7,119.7,98.9,120,99.2,120z M119,120.2c0.4,0,0.8-0.3,0.8-0.7c0,0,0,0,0,0c0-0.4-0.3-0.8-0.7-0.8c0,0,0,0,0,0
	c-0.4,0-0.8,0.3-0.8,0.7c0,0,0,0,0,0C118.2,119.9,118.6,120.2,119,120.2z M138.8,120.5c0.6,0,1-0.5,1-1.1s-0.4-1.1-1-1.1
	c-0.6,0-1,0.4-1,1.1S138.2,120.5,138.8,120.5z M158.7,120.7c0.7,0,1.3-0.6,1.3-1.3c0-0.7-0.5-1.3-1.2-1.3c0,0,0,0,0,0
	c-0.7,0-1.3,0.5-1.3,1.2c0,0,0,0,0,0C157.4,120.2,158,120.7,158.7,120.7z M178.5,121c0.8,0,1.5-0.7,1.5-1.5c0-0.8-0.7-1.5-1.5-1.5
	c-0.8,0-1.5,0.7-1.5,1.5C177,120.3,177.7,121,178.5,121z M59.5,139.5c0,0,0.1,0,0.1-0.1s0-0.1-0.1-0.1s-0.1,0-0.1,0.1
	S59.4,139.5,59.5,139.5z M79.3,139.8c0,0,0.4-0.2,0.4-0.4c0-0.2-0.2-0.4-0.4-0.4s-0.4,0.2-0.4,0.4C78.9,139.6,79.1,139.8,79.3,139.8
	z M99.2,140.1c0.4,0,0.7-0.3,0.7-0.7c0-0.4-0.3-0.7-0.7-0.7c-0.4,0-0.7,0.3-0.7,0.7C98.5,139.8,98.8,140.1,99.2,140.1z M119,140.4
	c0.5,0,1-0.4,1-1c0,0,0,0,0,0c0-0.5-0.4-1-1-1c0,0,0,0,0,0c-0.5,0-1,0.4-1,1c0,0,0,0,0,0C118,139.9,118.5,140.4,119,140.4z
	 M138.8,140.6c0.7,0,1.3-0.5,1.3-1.2c0,0,0,0,0,0c0-0.7-0.6-1.3-1.3-1.3c-0.7,0-1.3,0.6-1.3,1.3
	C137.6,140.1,138.1,140.6,138.8,140.6C138.8,140.6,138.8,140.6,138.8,140.6z M158.7,140.9c0.8,0,1.5-0.7,1.5-1.5
	c0-0.8-0.7-1.5-1.5-1.5c-0.8,0-1.5,0.7-1.5,1.5C157.1,140.2,157.9,140.9,158.7,140.9z M178.5,141.1c1,0,1.8-0.8,1.8-1.8
	s-0.8-1.8-1.8-1.8s-1.8,0.8-1.8,1.8S177.5,141.1,178.5,141.1z M59.5,159.6c0,0,0.3-0.1,0.3-0.3c0-0.2-0.1-0.3-0.3-0.3
	c-0.2,0-0.3,0.1-0.3,0.3C59.2,159.4,59.3,159.6,59.5,159.6z M79.3,159.9c0.3,0,0.6-0.3,0.6-0.6c0-0.3-0.3-0.6-0.6-0.6
	c-0.3,0-0.6,0.3-0.6,0.6C78.7,159.6,79,159.9,79.3,159.9z M99.2,160.2c0.5,0,0.9-0.4,0.9-0.9c0,0,0,0,0,0c0-0.5-0.4-0.9-0.9-0.9
	c0,0,0,0,0,0c-0.5,0-0.9,0.4-0.9,0.9c0,0,0,0,0,0C98.3,159.8,98.7,160.2,99.2,160.2z M119,160.5c0.7,0,1.2-0.6,1.2-1.2
	c0-0.7-0.6-1.2-1.2-1.2c-0.7,0-1.2,0.6-1.2,1.2C117.8,159.9,118.3,160.5,119,160.5z M138.8,160.8c0.8,0,1.5-0.7,1.5-1.5
	c0-0.8-0.7-1.5-1.5-1.5s-1.5,0.7-1.5,1.5C137.4,160.1,138,160.8,138.8,160.8z M158.7,161c1,0,1.8-0.8,1.8-1.8c0-1-0.8-1.8-1.8-1.8
	s-1.8,0.8-1.8,1.8C156.9,160.3,157.7,161,158.7,161z M178.5,161.3c1.1,0,2-0.9,2-2c0,0,0,0,0,0c0-1.1-0.9-2-2-2c0,0,0,0,0,0
	c-1.1,0-2,0.9-2,2c0,0,0,0,0,0C176.5,160.4,177.4,161.3,178.5,161.3C178.5,161.3,178.5,161.3,178.5,161.3z M39.7,179.3
	c0,0,0.1,0,0.1-0.1c0-0.1,0-0.1-0.1-0.1s-0.1,0-0.1,0.1C39.6,179.3,39.6,179.3,39.7,179.3z M59.5,179.6c0,0,0.4-0.2,0.4-0.4
	s-0.2-0.4-0.4-0.4c-0.2,0-0.4,0.2-0.4,0.4S59.3,179.6,59.5,179.6z M79.3,180c0.4,0,0.8-0.3,0.8-0.8c0-0.4-0.3-0.8-0.7-0.8
	c0,0,0,0,0,0c-0.4,0-0.8,0.3-0.8,0.7c0,0,0,0,0,0C78.6,179.6,78.9,180,79.3,180z M99.2,180.2c0.6,0,1-0.4,1-1.1s-0.4-1.1-1-1.1
	c-0.6,0-1,0.4-1,1.1S98.6,180.2,99.2,180.2z M119,180.6c0.8,0,1.4-0.6,1.4-1.4s-0.6-1.4-1.4-1.4c-0.8,0-1.4,0.6-1.4,1.4
	S118.2,180.6,119,180.6z M138.8,180.8c0.9,0,1.7-0.7,1.7-1.7s-0.7-1.7-1.7-1.7s-1.7,0.7-1.7,1.7S137.9,180.8,138.8,180.8z
	 M158.7,181.1c1,0,1.9-0.9,1.9-1.9c0-1.1-0.9-1.9-1.9-1.9c-1,0-1.9,0.9-1.9,1.9C156.8,180.2,157.6,181.1,158.7,181.1z M178.5,181.4
	c1.2,0,2.2-1,2.3-2.2c0,0,0,0,0-0.1c0-1.2-1-2.3-2.2-2.3c0,0,0,0,0,0c-1.2,0-2.2,1-2.3,2.2c0,0,0,0,0,0
	C176.3,180.5,177.2,181.4,178.5,181.4z M39.7,199.4c0,0,0.3-0.1,0.3-0.3c0-0.2-0.1-0.3-0.3-0.3c-0.2,0-0.3,0.1-0.3,0.3
	C39.4,199.2,39.5,199.4,39.7,199.4z M59.5,199.7c0.3,0,0.6-0.3,0.6-0.6c0-0.3-0.3-0.6-0.6-0.6c-0.3,0-0.6,0.3-0.6,0.6
	C58.9,199.4,59.2,199.7,59.5,199.7z M79.3,200c0.5,0,0.9-0.4,0.9-0.9c0,0,0,0,0,0c0-0.5-0.4-0.9-0.9-0.9c0,0,0,0,0,0
	c-0.5,0-0.9,0.4-0.9,0.9c0,0,0,0,0,0C78.5,199.6,78.8,200,79.3,200L79.3,200z M99.2,200.3c0.7,0,1.2-0.6,1.2-1.2
	c0-0.7-0.6-1.2-1.2-1.2c-0.7,0-1.2,0.6-1.2,1.2C98,199.7,98.5,200.3,99.2,200.3z M119,200.6c0.8,0,1.5-0.7,1.5-1.5
	c0-0.8-0.7-1.5-1.5-1.5c-0.8,0-1.5,0.7-1.5,1.5C117.5,199.9,118.2,200.6,119,200.6z M138.8,201c1,0,1.9-0.8,1.9-1.8c0,0,0,0,0,0
	c0-1-0.8-1.9-1.8-1.9c0,0,0,0,0,0c-1,0-1.9,0.8-1.9,1.8c0,0,0,0,0,0C137,200.1,137.8,201,138.8,201C138.8,201,138.8,201,138.8,201z
	 M158.7,201.2c1.2,0,2.1-0.9,2.1-2.2s-0.9-2.2-2.1-2.2s-2.1,0.9-2.1,2.2S157.5,201.2,158.7,201.2z M178.5,201.5
	c1.3,0,2.4-1.1,2.4-2.4c0-1.3-1.1-2.4-2.4-2.4c-1.3,0-2.4,1.1-2.4,2.4C176.1,200.4,177.2,201.5,178.5,201.5z M19.8,219L19.8,219
	L19.8,219z M39.7,219.4c0,0,0.4-0.2,0.4-0.4c0-0.2-0.2-0.4-0.4-0.4c0,0,0,0,0,0c-0.2,0-0.4,0.2-0.4,0.4c0,0,0,0,0,0
	C39.3,219.2,39.4,219.4,39.7,219.4z M59.5,219.7c0.4,0,0.7-0.3,0.7-0.7c0-0.4-0.3-0.7-0.7-0.7c-0.4,0-0.7,0.3-0.7,0.7
	C58.8,219.4,59.1,219.7,59.5,219.7z M79.3,220c0.6,0,1-0.5,1-1.1s-0.4-1.1-1-1.1c-0.6,0-1,0.4-1,1.1S78.7,220,79.3,220z M99.2,220.4
	c0.8,0,1.4-0.6,1.4-1.4s-0.6-1.4-1.4-1.4c-0.8,0-1.4,0.6-1.4,1.4S98.4,220.4,99.2,220.4z M119,220.7c0.9,0,1.7-0.8,1.7-1.7
	c0-0.9-0.8-1.7-1.7-1.7c-0.9,0-1.7,0.8-1.7,1.7C117.3,219.9,118.1,220.7,119,220.7z M138.8,221c1.1,0,2-0.9,2-2c0,0,0,0,0,0
	c0-1.1-0.9-2-2-2c0,0,0,0,0,0c-1.1,0-2,0.9-2,2c0,0,0,0,0,0C136.9,220.1,137.7,221,138.8,221C138.8,221,138.8,221,138.8,221z
	 M158.7,221.3c1.3,0,2.3-1,2.3-2.3c0-1.3-1-2.3-2.3-2.3c-1.3,0-2.3,1-2.3,2.3C156.4,220.3,157.4,221.3,158.7,221.3z M178.5,221.6
	c1.5,0,2.6-1.2,2.6-2.7c0-1.5-1.2-2.7-2.6-2.7s-2.6,1.2-2.6,2.7C175.9,220.5,177,221.6,178.5,221.6z M19.8,239c0,0,0.1,0,0.1-0.1
	s0-0.1-0.1-0.1s-0.1,0-0.1,0.1S19.7,239,19.8,239z M39.7,239.4c0,0,0.5-0.2,0.5-0.5c0-0.3-0.2-0.5-0.5-0.5c0,0,0,0,0,0
	c-0.3,0-0.5,0.2-0.5,0.5c0,0,0,0,0,0C39.2,239.2,39.4,239.4,39.7,239.4z M59.5,239.7c0.5,0,0.8-0.4,0.8-0.8c0-0.5-0.4-0.8-0.8-0.8
	c-0.5,0-0.8,0.4-0.8,0.8C58.7,239.3,59.1,239.7,59.5,239.7z M79.3,240c0.7,0,1.2-0.5,1.2-1.2c0-0.7-0.5-1.2-1.2-1.2
	s-1.2,0.5-1.2,1.2C78.2,239.6,78.7,240,79.3,240z M99.2,240.4c0.8,0,1.5-0.7,1.5-1.5s-0.7-1.5-1.5-1.5c-0.8,0-1.5,0.7-1.5,1.5
	S98.4,240.4,99.2,240.4z M119,240.7c1,0,1.8-0.8,1.8-1.8c0-1-0.8-1.8-1.8-1.8c-1,0-1.8,0.8-1.8,1.8C117.2,239.9,118,240.7,119,240.7
	z M138.8,241c1.2,0,2.1-0.9,2.1-2.2s-0.9-2.2-2.1-2.2s-2.1,0.9-2.1,2.2S137.6,241,138.8,241z M158.7,241.4c1.4,0,2.5-1.1,2.5-2.5
	c0,0,0,0,0,0c0-1.4-1.1-2.5-2.5-2.5c0,0,0,0,0,0c-1.4,0-2.5,1.1-2.5,2.5c0,0,0,0,0,0C156.2,240.3,157.3,241.4,158.7,241.4
	C158.7,241.4,158.7,241.4,158.7,241.4z M178.5,241.7c1.5,0,2.7-1.2,2.8-2.7c0,0,0,0,0-0.1c0-1.5-1.2-2.7-2.7-2.8c0,0,0,0-0.1,0
	c-1.5,0-2.7,1.2-2.8,2.7c0,0,0,0,0,0.1C175.7,240.4,177,241.6,178.5,241.7C178.5,241.7,178.5,241.7,178.5,241.7L178.5,241.7z
	 M19.8,259c0,0,0.2-0.1,0.2-0.2c0-0.1-0.1-0.2-0.2-0.2s-0.2,0.1-0.2,0.2C19.6,258.9,19.7,259,19.8,259z M39.7,259.3
	c0.3,0,0.6-0.2,0.6-0.6c0-0.3-0.2-0.6-0.6-0.6c-0.3,0-0.5,0.2-0.5,0.6C39.1,259.1,39.3,259.3,39.7,259.3z M59.5,259.7
	c0.5,0,0.9-0.4,0.9-0.9c0,0,0,0,0,0c0-0.5-0.4-0.9-0.9-0.9c0,0,0,0,0,0c-0.5,0-0.9,0.4-0.9,0.9c0,0,0,0,0,0
	C58.6,259.3,59,259.7,59.5,259.7z M79.3,260c0.7,0,1.2-0.6,1.2-1.2c0-0.7-0.6-1.2-1.2-1.2c-0.7,0-1.2,0.6-1.2,1.2
	C78.1,259.5,78.7,260,79.3,260z M99.2,260.3c0.8,0,1.5-0.7,1.5-1.5c0-0.8-0.7-1.5-1.5-1.5c-0.8,0-1.5,0.7-1.5,1.5
	C97.6,259.6,98.3,260.3,99.2,260.3z M119,260.7c1,0,1.9-0.9,1.9-1.9c0-1.1-0.9-1.9-1.9-1.9c-1,0-1.9,0.9-1.9,1.9
	C117.1,259.8,118,260.7,119,260.7z M138.8,261.1c1.2,0,2.2-1,2.3-2.2c0,0,0,0,0-0.1c0-1.2-1-2.3-2.2-2.3c0,0,0,0,0,0
	c-1.2,0-2.2,1-2.3,2.2c0,0,0,0,0,0C136.6,260.1,137.6,261.1,138.8,261.1z M158.7,261.4c1.4,0,2.6-1.2,2.6-2.6c0,0,0,0,0,0
	c0-1.4-1.2-2.6-2.6-2.6c0,0,0,0,0,0c-1.4,0-2.6,1.2-2.6,2.6c0,0,0,0,0,0C156.1,260.2,157.2,261.4,158.7,261.4
	C158.7,261.4,158.7,261.4,158.7,261.4z M178.5,261.7c1.6,0,2.9-1.3,2.9-2.9c0-1.6-1.3-2.9-2.9-2.9c-1.6,0-2.9,1.3-2.9,2.9
	C175.6,260.4,176.9,261.7,178.5,261.7z M19.8,279c0,0,0.3-0.1,0.3-0.3c0-0.2-0.1-0.3-0.3-0.3c-0.2,0-0.3,0.1-0.3,0.3
	C19.6,278.9,19.7,279,19.8,279z M39.7,279.3c0.3,0,0.6-0.3,0.6-0.6c0-0.3-0.3-0.6-0.6-0.6c-0.3,0-0.6,0.3-0.6,0.6
	C39.1,279,39.3,279.3,39.7,279.3L39.7,279.3z M59.5,279.6c0.5,0,0.9-0.4,0.9-0.9c0-0.5-0.4-0.9-0.9-0.9s-0.9,0.4-0.9,0.9
	C58.6,279.2,59,279.6,59.5,279.6z M79.3,280c0.7,0,1.3-0.5,1.3-1.2c0,0,0,0,0,0c0-0.7-0.6-1.3-1.3-1.3c-0.7,0-1.3,0.5-1.3,1.2
	c0,0,0,0,0,0C78.1,279.4,78.6,280,79.3,280C79.3,280,79.3,280,79.3,280z M99.2,280.4c0.9,0,1.7-0.7,1.7-1.7s-0.7-1.7-1.7-1.7
	c-0.9,0-1.7,0.7-1.7,1.7S98.2,280.4,99.2,280.4z M119,280.7c1.1,0,2-0.9,2-2c0,0,0,0,0,0c0-1.1-0.9-2-2-2c-1.1,0-2,0.9-2,2
	c0,0,0,0,0,0C117,279.8,117.9,280.7,119,280.7C119,280.7,119,280.7,119,280.7z M138.8,281c1.3,0,2.3-1,2.3-2.3c0-1.3-1-2.3-2.3-2.3
	c-1.3,0-2.3,1-2.3,2.3C136.5,280,137.6,281,138.8,281z M158.7,281.3c1.5,0,2.6-1.2,2.6-2.7c0-1.5-1.2-2.7-2.6-2.7
	c-1.5,0-2.6,1.2-2.6,2.7C156,280.2,157.2,281.3,158.7,281.3z M178.5,281.7c1.6,0,3-1.3,3-3c0,0,0,0,0,0c0-1.6-1.3-3-3-3c0,0,0,0,0,0
	c-1.6,0-3,1.3-3,3c0,0,0,0,0,0C175.5,280.3,176.9,281.7,178.5,281.7C178.5,281.7,178.5,281.7,178.5,281.7z M19.8,298.9
	c0,0,0.3-0.1,0.3-0.3c0-0.2-0.1-0.3-0.3-0.3c-0.2,0-0.3,0.1-0.3,0.3C19.6,298.8,19.7,298.9,19.8,298.9z M39.7,299.2
	c0.3,0,0.6-0.3,0.6-0.6c0-0.3-0.3-0.6-0.6-0.6c-0.3,0-0.6,0.3-0.6,0.6C39.1,298.9,39.3,299.2,39.7,299.2L39.7,299.2z M59.5,299.6
	c0.5,0,1-0.4,1-1c0,0,0,0,0,0c0-0.5-0.4-1-1-1c0,0,0,0,0,0c-0.5,0-1,0.4-1,1c0,0,0,0,0,0C58.5,299.1,59,299.6,59.5,299.6z
	 M79.3,299.9c0.7,0,1.3-0.6,1.3-1.3s-0.6-1.3-1.3-1.3c-0.7,0-1.3,0.6-1.3,1.3S78.6,299.9,79.3,299.9L79.3,299.9z M99.2,300.3
	c0.9,0,1.7-0.7,1.7-1.7c0-0.9-0.7-1.7-1.7-1.7c-0.9,0-1.7,0.7-1.7,1.7C97.5,299.5,98.2,300.3,99.2,300.3z M119,300.6
	c1.1,0,2-0.9,2-2c0-1.1-0.9-2-2-2s-2,0.9-2,2S117.9,300.6,119,300.6z M138.8,301c1.3,0,2.4-1,2.4-2.3c0,0,0,0,0,0
	c0-1.3-1-2.4-2.3-2.4c0,0,0,0,0,0c-1.3,0-2.4,1-2.4,2.3c0,0,0,0,0,0C136.5,299.9,137.5,301,138.8,301C138.8,301,138.8,301,138.8,301
	z M158.7,301.3c1.5,0,2.7-1.2,2.7-2.7c0-1.5-1.2-2.7-2.7-2.7c-1.5,0-2.7,1.2-2.7,2.7C156,300.1,157.2,301.3,158.7,301.3z
	 M178.5,301.6c1.7,0,3-1.4,3-3c0-1.7-1.4-3-3-3s-3,1.4-3,3C175.5,300.3,176.9,301.6,178.5,301.6z M0,318.6L0,318.6L0,318.6z
	 M19.8,318.8c0,0,0.3-0.1,0.3-0.3c0-0.2-0.1-0.3-0.3-0.3c-0.2,0-0.3,0.1-0.3,0.3C19.6,318.7,19.7,318.8,19.8,318.8z M39.7,319.2
	c0.4,0,0.6-0.3,0.7-0.6c0,0,0,0,0-0.1c0-0.4-0.3-0.6-0.6-0.7c0,0,0,0,0,0c-0.4,0-0.6,0.3-0.7,0.6c0,0,0,0,0,0
	C39,318.9,39.3,319.2,39.7,319.2z M59.5,319.5c0.5,0,1-0.4,1-1c0,0,0,0,0,0c0-0.5-0.4-1-1-1c0,0,0,0,0,0c-0.5,0-1,0.4-1,1
	c0,0,0,0,0,0C58.5,319.1,59,319.5,59.5,319.5z M79.3,319.8c0.7,0,1.3-0.6,1.3-1.3c0-0.7-0.6-1.3-1.3-1.3c-0.7,0-1.3,0.6-1.3,1.3
	C78,319.2,78.6,319.8,79.3,319.8L79.3,319.8z M99.2,320.2c0.9,0,1.7-0.8,1.7-1.7c0-0.9-0.8-1.7-1.7-1.7c-0.9,0-1.7,0.8-1.7,1.7
	C97.5,319.4,98.2,320.2,99.2,320.2z M119,320.5c1.1,0,2-0.9,2-2c0-1.1-0.9-2-2-2s-2,0.9-2,2C117,319.6,117.9,320.5,119,320.5z
	 M138.8,320.9c1.3,0,2.4-1,2.4-2.3c0,0,0,0,0,0c0-1.3-1-2.4-2.3-2.4c0,0,0,0,0,0c-1.3,0-2.4,1-2.4,2.3c0,0,0,0,0,0
	C136.5,319.8,137.5,320.9,138.8,320.9C138.8,320.9,138.8,320.9,138.8,320.9z M158.7,321.3c1.5,0,2.7-1.2,2.8-2.7c0,0,0,0,0-0.1
	c0-1.5-1.2-2.7-2.7-2.8c0,0,0,0-0.1,0c-1.5,0-2.7,1.2-2.8,2.7c0,0,0,0,0,0.1C155.9,320,157.1,321.2,158.7,321.3
	C158.6,321.3,158.7,321.3,158.7,321.3z M178.5,321.6c1.7,0,3.1-1.4,3.1-3.1c0,0,0,0,0,0c0-1.7-1.3-3.1-3-3.1c-1.7,0-3.1,1.3-3.1,3
	c0,0,0,0.1,0,0.1C175.4,320.2,176.8,321.6,178.5,321.6C178.5,321.6,178.5,321.6,178.5,321.6z M19.8,338.7c0,0,0.3-0.1,0.3-0.3
	c0-0.2-0.1-0.3-0.3-0.3c-0.2,0-0.3,0.1-0.3,0.3C19.6,338.6,19.7,338.7,19.8,338.7z M39.7,339.1c0.4,0,0.6-0.3,0.7-0.6c0,0,0,0,0-0.1
	c0-0.4-0.3-0.6-0.6-0.7c0,0,0,0,0,0c-0.4,0-0.6,0.3-0.7,0.6c0,0,0,0,0,0C39,338.8,39.3,339.1,39.7,339.1z M59.5,339.4
	c0.5,0,1-0.4,1-1c0,0,0,0,0,0c0-0.5-0.4-1-1-1c0,0,0,0,0,0c-0.5,0-1,0.4-1,1c0,0,0,0,0,0C58.5,339,59,339.4,59.5,339.4z M79.3,339.7
	c0.7,0,1.3-0.6,1.3-1.3s-0.6-1.3-1.3-1.3c-0.7,0-1.3,0.6-1.3,1.3S78.6,339.7,79.3,339.7L79.3,339.7z M99.2,340.1
	c0.9,0,1.7-0.7,1.7-1.7c0-0.9-0.7-1.7-1.7-1.7c-0.9,0-1.7,0.7-1.7,1.7C97.5,339.3,98.2,340.1,99.2,340.1z M119,340.4
	c1.1,0,2-0.9,2-2c0-1.1-0.9-2-2-2s-2,0.9-2,2S117.9,340.4,119,340.4z M138.8,340.8c1.3,0,2.4-1,2.4-2.3c0,0,0,0,0,0
	c0-1.3-1-2.4-2.3-2.4c0,0,0,0,0,0c-1.3,0-2.4,1-2.4,2.3c0,0,0,0,0,0C136.5,339.7,137.5,340.8,138.8,340.8
	C138.8,340.8,138.8,340.8,138.8,340.8z M158.7,341.1c1.5,0,2.7-1.2,2.7-2.7c0-1.5-1.2-2.7-2.7-2.7c-1.5,0-2.7,1.2-2.7,2.7
	C156,339.9,157.2,341.1,158.7,341.1z M178.5,341.5c1.7,0,3.1-1.4,3.1-3.1c0,0,0,0,0,0c0-1.7-1.3-3.1-3-3.1c-1.7,0-3.1,1.3-3.1,3
	c0,0,0,0.1,0,0.1C175.4,340.1,176.8,341.5,178.5,341.5C178.5,341.5,178.5,341.5,178.5,341.5z M19.8,358.6c0,0,0.3-0.1,0.3-0.3
	c0-0.2-0.1-0.3-0.3-0.3c-0.2,0-0.3,0.1-0.3,0.3C19.6,358.5,19.7,358.6,19.8,358.6z M39.7,358.9c0.3,0,0.6-0.3,0.6-0.6
	c0-0.3-0.3-0.6-0.6-0.6c-0.3,0-0.6,0.3-0.6,0.6C39.1,358.6,39.3,358.9,39.7,358.9L39.7,358.9z M59.5,359.2c0.5,0,0.9-0.4,0.9-0.9
	c0-0.5-0.4-0.9-0.9-0.9s-0.9,0.4-0.9,0.9C58.6,358.8,59,359.2,59.5,359.2z M79.3,359.6c0.7,0,1.3-0.6,1.3-1.3c0-0.7-0.5-1.3-1.2-1.3
	c0,0,0,0,0,0c-0.7,0-1.3,0.5-1.3,1.2c0,0,0,0,0,0C78.1,359,78.6,359.6,79.3,359.6C79.3,359.6,79.3,359.6,79.3,359.6z M99.2,360
	c0.9,0,1.7-0.7,1.7-1.7s-0.7-1.7-1.7-1.7c-0.9,0-1.7,0.7-1.7,1.7S98.2,360,99.2,360z M119,360.3c1.1,0,2-0.9,2-2c0,0,0,0,0,0
	c0-1.1-0.9-2-2-2c0,0,0,0,0,0c-1.1,0-2,0.9-2,2c0,0,0,0,0,0C117,359.4,117.9,360.3,119,360.3C119,360.3,119,360.3,119,360.3z
	 M138.8,360.6c1.3,0,2.3-1,2.3-2.3c0-1.3-1-2.3-2.3-2.3c-1.3,0-2.3,1-2.3,2.3C136.5,359.6,137.6,360.6,138.8,360.6z M158.7,361
	c1.5,0,2.6-1.2,2.6-2.7c0-1.5-1.2-2.7-2.6-2.7c-1.5,0-2.6,1.2-2.6,2.7C156,359.8,157.2,361,158.7,361z M178.5,361.3c1.7,0,3-1.4,3-3
	c0-1.7-1.4-3-3-3s-3,1.4-3,3C175.5,360,176.9,361.3,178.5,361.3z M19.8,378.4c0,0,0.2-0.1,0.2-0.2c0-0.1-0.1-0.2-0.2-0.2
	c-0.1,0-0.2,0.1-0.2,0.2C19.6,378.3,19.7,378.4,19.8,378.4z M39.7,378.8c0.3,0,0.6-0.2,0.6-0.6c0-0.3-0.2-0.6-0.6-0.6
	c-0.3,0-0.5,0.2-0.5,0.6C39.1,378.5,39.3,378.8,39.7,378.8z M59.5,379.1c0.5,0,0.9-0.4,0.9-0.9c0,0,0,0,0,0c0-0.5-0.4-0.9-0.9-0.9
	c0,0,0,0,0,0c-0.5,0-0.9,0.4-0.9,0.9c0,0,0,0,0,0C58.6,378.7,59,379.1,59.5,379.1z M79.3,379.4c0.7,0,1.2-0.6,1.2-1.2
	c0-0.7-0.6-1.2-1.2-1.2c-0.7,0-1.2,0.6-1.2,1.2C78.1,378.9,78.7,379.4,79.3,379.4z M99.2,379.8c0.9,0,1.6-0.7,1.6-1.6
	c0-0.9-0.7-1.6-1.6-1.6c-0.9,0-1.6,0.7-1.6,1.6C97.6,379.1,98.3,379.8,99.2,379.8z M119,380.1c1,0,1.9-0.9,1.9-1.9
	c0-1-0.9-1.9-1.9-1.9c-1,0-1.9,0.9-1.9,1.9C117.1,379.3,118,380.1,119,380.1z M138.8,380.5c1.2,0,2.2-1,2.3-2.2c0,0,0,0,0,0
	c0-1.2-1-2.3-2.2-2.3c0,0,0,0-0.1,0c-1.2,0-2.2,1-2.3,2.2c0,0,0,0,0,0.1C136.6,379.5,137.6,380.5,138.8,380.5z M158.7,380.8
	c1.4,0,2.6-1.2,2.6-2.6c0,0,0,0,0,0c0-1.4-1.2-2.6-2.6-2.6c0,0,0,0,0,0c-1.4,0-2.6,1.2-2.6,2.6c0,0,0,0,0,0
	C156.1,379.6,157.2,380.8,158.7,380.8C158.7,380.8,158.7,380.8,158.7,380.8z M178.5,381.1c1.6,0,2.9-1.3,2.9-2.9s-1.3-2.9-2.9-2.9
	c-1.6,0-2.9,1.3-2.9,2.9S176.9,381.1,178.5,381.1z M19.8,398.3c0,0,0.2-0.1,0.2-0.2c0-0.1-0.1-0.2-0.2-0.2s-0.2,0.1-0.2,0.2
	C19.7,398.2,19.7,398.3,19.8,398.3z M39.7,398.6c0,0,0.5-0.2,0.5-0.5c0-0.3-0.2-0.5-0.5-0.5c-0.3,0-0.5,0.2-0.5,0.5
	C39.2,398.4,39.4,398.6,39.7,398.6z M59.5,398.9c0.5,0,0.8-0.4,0.8-0.8c0-0.5-0.4-0.8-0.8-0.8c-0.5,0-0.8,0.4-0.8,0.8
	C58.7,398.6,59.1,398.9,59.5,398.9z M79.3,399.3c0.7,0,1.2-0.5,1.2-1.2s-0.5-1.2-1.2-1.2s-1.2,0.5-1.2,1.2S78.7,399.3,79.3,399.3z
	 M99.2,399.6c0.8,0,1.5-0.7,1.5-1.5c0-0.8-0.7-1.5-1.5-1.5c-0.8,0-1.5,0.7-1.5,1.5C97.7,398.9,98.4,399.6,99.2,399.6z M119,399.9
	c1,0,1.8-0.8,1.8-1.8s-0.8-1.8-1.8-1.8c-1,0-1.8,0.8-1.8,1.8S118,399.9,119,399.9z M138.8,400.3c1.2,0,2.1-0.9,2.1-2.2
	c0-1.2-0.9-2.2-2.1-2.2s-2.1,0.9-2.1,2.2C136.7,399.3,137.6,400.3,138.8,400.3z M158.7,400.6c1.4,0,2.5-1.1,2.5-2.5c0,0,0,0,0,0
	c0-1.4-1.1-2.5-2.5-2.5c0,0,0,0,0,0c-1.4,0-2.5,1.1-2.5,2.5c0,0,0,0,0,0C156.2,399.5,157.3,400.6,158.7,400.6
	C158.7,400.6,158.7,400.6,158.7,400.6z M178.5,400.9c1.6,0,2.8-1.3,2.8-2.8c0-1.5-1.3-2.8-2.8-2.8c-1.5,0-2.8,1.3-2.8,2.8
	C175.7,399.7,177,400.9,178.5,400.9z M19.8,418.1L19.8,418.1L19.8,418.1z M39.7,418.4c0,0,0.4-0.2,0.4-0.4c0-0.2-0.2-0.4-0.4-0.4
	c0,0,0,0,0,0c-0.2,0-0.4,0.2-0.4,0.4c0,0,0,0,0,0C39.3,418.2,39.4,418.4,39.7,418.4z M59.5,418.7c0.4,0,0.7-0.3,0.7-0.7
	c0-0.4-0.3-0.7-0.7-0.7c-0.4,0-0.7,0.3-0.7,0.7C58.8,418.4,59.1,418.7,59.5,418.7z M79.3,419.1c0.6,0,1-0.5,1-1s-0.4-1.1-1-1.1
	c-0.6,0-1,0.4-1,1.1S78.7,419.1,79.3,419.1z M99.2,419.4c0.8,0,1.4-0.6,1.4-1.4s-0.6-1.4-1.4-1.4c-0.8,0-1.4,0.6-1.4,1.4
	S98.4,419.4,99.2,419.4z M119,419.7c0.9,0,1.7-0.8,1.7-1.7c0-0.9-0.8-1.7-1.7-1.7c-0.9,0-1.7,0.8-1.7,1.7
	C117.3,419,118.1,419.7,119,419.7z M138.8,420.1c1.1,0,2-0.9,2-2c0-1.1-0.9-2-2-2s-2,0.9-2,2C136.8,419.1,137.7,420.1,138.8,420.1z
	 M158.7,420.3c1.3,0,2.3-1,2.3-2.3c0-1.3-1-2.3-2.3-2.3c-1.3,0-2.3,1-2.3,2.3C156.4,419.3,157.4,420.3,158.7,420.3z M178.5,420.7
	c1.5,0,2.6-1.2,2.6-2.7c0-1.5-1.2-2.7-2.6-2.7s-2.6,1.2-2.6,2.7C175.9,419.5,177,420.7,178.5,420.7z M39.7,438.2
	c0,0,0.3-0.1,0.3-0.3c0-0.2-0.1-0.3-0.3-0.3c-0.2,0-0.3,0.1-0.3,0.3C39.4,438.1,39.5,438.2,39.7,438.2z M59.5,438.5
	c0.3,0,0.6-0.3,0.6-0.6c0-0.3-0.3-0.6-0.6-0.6c-0.3,0-0.6,0.3-0.6,0.6C58.9,438.2,59.2,438.5,59.5,438.5z M79.3,438.9
	c0.5,0,0.9-0.4,0.9-0.9c0-0.5-0.4-0.9-0.9-0.9c-0.5,0-0.9,0.4-0.9,0.9C78.4,438.4,78.8,438.9,79.3,438.9z M99.2,439.1
	c0.7,0,1.2-0.6,1.2-1.2c0-0.7-0.6-1.2-1.2-1.2c-0.7,0-1.2,0.6-1.2,1.2C98,438.6,98.5,439.1,99.2,439.1z M119,439.5
	c0.8,0,1.5-0.7,1.5-1.5c0-0.8-0.7-1.5-1.5-1.5c-0.8,0-1.5,0.7-1.5,1.5C117.5,438.7,118.2,439.5,119,439.5z M138.8,439.8
	c1,0,1.9-0.8,1.9-1.8c0,0,0,0,0,0c0-1-0.8-1.9-1.8-1.9c0,0,0,0,0,0c-1,0-1.9,0.8-1.9,1.8c0,0,0,0,0,0
	C137,438.9,137.8,439.8,138.8,439.8C138.8,439.8,138.8,439.8,138.8,439.8z M158.7,440.1c1.2,0,2.1-0.9,2.1-2.2
	c0-1.2-0.9-2.2-2.1-2.2s-2.1,0.9-2.1,2.2C156.5,439.1,157.5,440.1,158.7,440.1z M178.5,440.4c1.4,0,2.5-1.1,2.5-2.5c0,0,0,0,0,0
	c0-1.4-1.1-2.5-2.5-2.5c0,0,0,0,0,0c-1.4,0-2.5,1.1-2.5,2.5c0,0,0,0,0,0C176,439.3,177.1,440.4,178.5,440.4
	C178.5,440.4,178.5,440.4,178.5,440.4z M39.7,458c0,0,0.2-0.1,0.2-0.2c0-0.1-0.1-0.2-0.2-0.2s-0.2,0.1-0.2,0.2
	C39.5,457.9,39.6,458,39.7,458L39.7,458z M59.5,458.3c0,0,0.4-0.2,0.4-0.4s-0.2-0.4-0.4-0.4c-0.2,0-0.4,0.2-0.4,0.4
	S59.3,458.3,59.5,458.3z M79.3,458.6c0.4,0,0.8-0.3,0.8-0.8c0-0.4-0.3-0.8-0.7-0.8c0,0,0,0,0,0c-0.4,0-0.8,0.3-0.8,0.7c0,0,0,0,0,0
	C78.6,458.3,78.9,458.6,79.3,458.6z M99.2,458.9c0.6,0,1.1-0.5,1.1-1.1c0-0.6-0.5-1.1-1.1-1.1c-0.6,0-1.1,0.6-1,1.2
	C98.2,458.4,98.6,458.9,99.2,458.9z M119,459.2c0.8,0,1.4-0.6,1.4-1.4s-0.6-1.4-1.4-1.4c-0.8,0-1.4,0.6-1.4,1.4
	S118.2,459.2,119,459.2z M138.8,459.5c0.9,0,1.7-0.8,1.7-1.7c0-0.9-0.8-1.7-1.7-1.7c-0.9,0-1.7,0.8-1.7,1.7
	C137.1,458.8,137.9,459.5,138.8,459.5z M158.7,459.8c1.1,0,2-0.9,2-2c0,0,0,0,0,0c0-1.1-0.9-2-2-2c-1.1,0-2,0.9-2,2c0,0,0,0,0,0
	C156.7,458.9,157.6,459.8,158.7,459.8C158.7,459.8,158.7,459.8,158.7,459.8z M178.5,460.1c1.2,0,2.2-1,2.3-2.2c0,0,0,0,0-0.1
	c0-1.2-1-2.3-2.2-2.3c0,0,0,0,0,0c-1.2,0-2.2,1-2.3,2.2c0,0,0,0,0,0C176.3,459.1,177.2,460.1,178.5,460.1z M39.7,477.8L39.7,477.8
	L39.7,477.8z M59.5,478.1c0,0,0.3-0.2,0.3-0.3c0-0.2-0.2-0.3-0.3-0.3c-0.2,0-0.3,0.2-0.3,0.3C59.2,477.9,59.3,478.1,59.5,478.1z
	 M79.3,478.3c0.3,0,0.6-0.3,0.6-0.6c0-0.3-0.3-0.6-0.6-0.6c-0.3,0-0.6,0.3-0.6,0.6C78.7,478.1,79,478.3,79.3,478.3z M99.2,478.7
	c0.5,0,0.9-0.4,0.9-0.9c0-0.5-0.4-0.9-0.9-0.9c-0.5,0-0.9,0.4-0.9,0.9C98.2,478.2,98.7,478.7,99.2,478.7z M119,478.9
	c0.7,0,1.2-0.6,1.2-1.2c0-0.7-0.6-1.2-1.2-1.2c-0.7,0-1.2,0.6-1.2,1.2C117.8,478.4,118.3,478.9,119,478.9z M138.8,479.2
	c0.8,0,1.5-0.7,1.5-1.5s-0.7-1.5-1.5-1.5s-1.5,0.7-1.5,1.5S138,479.2,138.8,479.2z M158.7,479.5c1,0,1.8-0.8,1.8-1.8
	c0-1-0.8-1.8-1.8-1.8s-1.8,0.8-1.8,1.8C156.9,478.7,157.7,479.5,158.7,479.5z M178.5,479.8c1.1,0,2-0.9,2-2s-0.9-2-2-2s-2,0.9-2,2
	S177.4,479.8,178.5,479.8z M59.5,497.8c0,0,0.2-0.1,0.2-0.2c0-0.1-0.1-0.2-0.2-0.2s-0.2,0.1-0.2,0.2
	C59.3,497.7,59.4,497.8,59.5,497.8z M79.3,498.1c0,0,0.4-0.2,0.4-0.4s-0.2-0.4-0.4-0.4s-0.4,0.2-0.4,0.4S79.1,498.1,79.3,498.1z
	 M99.2,498.3c0.4,0,0.7-0.3,0.7-0.7c0-0.4-0.3-0.7-0.7-0.7c-0.4,0-0.7,0.3-0.7,0.7C98.5,498,98.8,498.3,99.2,498.3z M119,498.6
	c0.5,0,1-0.4,1-1c0,0,0,0,0,0c0-0.5-0.4-1-1-1c0,0,0,0,0,0c-0.5,0-1,0.4-1,1c0,0,0,0,0,0C118,498.2,118.5,498.6,119,498.6z
	 M138.8,498.9c0.7,0,1.3-0.6,1.3-1.3c0-0.7-0.5-1.3-1.2-1.3c0,0,0,0,0,0c-0.7,0-1.3,0.5-1.3,1.2c0,0,0,0,0,0
	C137.6,498.3,138.1,498.9,138.8,498.9z M158.7,499.2c0.8,0,1.5-0.7,1.5-1.5s-0.7-1.5-1.5-1.5c-0.8,0-1.5,0.7-1.5,1.5
	S157.9,499.2,158.7,499.2z M178.5,499.4c1,0,1.8-0.8,1.8-1.8s-0.8-1.8-1.8-1.8c-1,0-1.8,0.8-1.8,1.8S177.5,499.4,178.5,499.4z
	 M79.3,517.7c0,0,0.2-0.1,0.2-0.2c0-0.1-0.1-0.2-0.2-0.2c-0.1,0-0.2,0.1-0.2,0.2C79.1,517.6,79.2,517.7,79.3,517.7L79.3,517.7z
	 M99.2,518c0,0,0.5-0.2,0.5-0.5c0-0.3-0.2-0.5-0.5-0.5c0,0,0,0,0,0c-0.3,0-0.5,0.2-0.5,0.5c0,0,0,0,0,0
	C98.7,517.8,98.9,518,99.2,518z M119,518.3c0.4,0,0.8-0.3,0.8-0.7c0,0,0,0,0,0c0-0.4-0.3-0.8-0.7-0.8c0,0,0,0,0,0
	c-0.4,0-0.8,0.3-0.8,0.7c0,0,0,0,0,0C118.2,518,118.6,518.3,119,518.3z M138.8,518.6c0.6,0,1-0.5,1-1c0-0.6-0.4-1.1-1-1.1
	c-0.6,0-1,0.4-1,1.1C137.8,518.1,138.2,518.6,138.8,518.6z M158.7,518.9c0.7,0,1.3-0.6,1.3-1.3c0-0.7-0.6-1.3-1.3-1.3
	c-0.7,0-1.3,0.6-1.3,1.3C157.4,518.2,158,518.9,158.7,518.9z M178.5,519.1c0.8,0,1.5-0.7,1.5-1.5s-0.7-1.5-1.5-1.5
	c-0.8,0-1.5,0.7-1.5,1.5S177.7,519.1,178.5,519.1z M99.2,537.7c0,0,0.3-0.1,0.3-0.3c0-0.2-0.1-0.3-0.3-0.3s-0.3,0.1-0.3,0.3
	S99,537.7,99.2,537.7z M119,538c0.3,0,0.6-0.2,0.6-0.6c0-0.3-0.2-0.6-0.6-0.6c-0.3,0-0.6,0.2-0.6,0.6C118.5,537.8,118.7,538,119,538
	z M138.8,538.3c0.5,0,0.8-0.4,0.8-0.8c0-0.5-0.4-0.8-0.8-0.8c-0.5,0-0.8,0.4-0.8,0.8C138,537.9,138.4,538.3,138.8,538.3z
	 M158.7,538.5c0.6,0,1-0.5,1-1.1c0-0.6-0.4-1-1-1s-1,0.4-1,1S158.1,538.5,158.7,538.5z M178.5,538.7c0.7,0,1.3-0.5,1.3-1.2
	c0,0,0,0,0,0c0-0.7-0.5-1.3-1.2-1.3c0,0,0,0,0,0c-0.7,0-1.3,0.5-1.3,1.2c0,0,0,0,0,0C177.2,538.1,177.8,538.7,178.5,538.7z
	 M99.2,557.4c0,0,0.1,0,0.1-0.1c0-0.1,0-0.1-0.1-0.1s-0.1,0-0.1,0.1C99.1,557.4,99.1,557.4,99.2,557.4z M119,557.7
	c0,0,0.3-0.2,0.3-0.3s-0.2-0.3-0.3-0.3c-0.2,0-0.3,0.2-0.3,0.3S118.8,557.7,119,557.7z M138.8,557.9c0.3,0,0.6-0.2,0.6-0.6
	c0-0.3-0.2-0.6-0.6-0.6c-0.3,0-0.6,0.2-0.6,0.6C138.3,557.7,138.5,557.9,138.8,557.9z M158.7,558.1c0.4,0,0.8-0.3,0.8-0.7
	c0,0,0,0,0,0c0-0.4-0.3-0.8-0.7-0.8c0,0,0,0,0,0c-0.4,0-0.8,0.3-0.8,0.7c0,0,0,0,0,0C157.9,557.8,158.2,558.1,158.7,558.1z
	 M178.5,558.3c0.5,0,1-0.4,1-1c0,0,0,0,0,0c0-0.5-0.4-1-1-1c0,0,0,0,0,0c-0.5,0-1,0.4-1,1c0,0,0,0,0,0
	C177.5,557.9,178,558.3,178.5,558.3C178.5,558.3,178.5,558.3,178.5,558.3z M119,577.3c0,0,0.1,0,0.1-0.1s0-0.1-0.1-0.1
	c-0.1,0-0.1,0-0.1,0.1S118.9,577.3,119,577.3z M138.8,577.6c0,0,0.3-0.2,0.3-0.3c0-0.2-0.2-0.3-0.3-0.3c-0.2,0-0.3,0.2-0.3,0.3
	S138.7,577.6,138.8,577.6z M158.7,577.8c0.3,0,0.6-0.2,0.6-0.6s-0.2-0.6-0.6-0.6c-0.3,0-0.6,0.2-0.6,0.6S158.4,577.8,158.7,577.8z
	 M178.5,578c0.4,0,0.7-0.3,0.7-0.7c0-0.4-0.3-0.7-0.7-0.7c-0.4,0-0.7,0.3-0.7,0.7C177.8,577.6,178.1,578,178.5,578z M158.7,597.4
	c0,0,0.3-0.1,0.3-0.3s-0.1-0.3-0.3-0.3s-0.3,0.1-0.3,0.3C158.4,597.3,158.5,597.4,158.7,597.4z M178.5,597.6c0,0,0.4-0.2,0.4-0.4
	s-0.2-0.4-0.4-0.4s-0.4,0.2-0.4,0.4S178.3,597.6,178.5,597.6z M158.7,617.1L158.7,617.1L158.7,617.1z M178.5,617.2
	c0,0,0.2-0.1,0.2-0.2c0-0.1-0.1-0.2-0.2-0.2s-0.2,0.1-0.2,0.2C178.4,617.2,178.4,617.2,178.5,617.2z M199,59.2
	c-0.2-0.2-0.4-0.3-0.7-0.3c-0.5,0-0.9,0.4-0.9,0.9c0,0,0,0,0,0c0,0.5,0.4,0.9,0.9,0.9c0.2,0,0.5-0.1,0.7-0.3V59.2z M199,78.6
	c-0.2-0.1-0.4-0.2-0.6-0.2c-0.7,0-1.2,0.6-1.2,1.2c0,0.7,0.6,1.2,1.2,1.2c0.2,0,0.5-0.1,0.6-0.2C199,80.7,199,78.6,199,78.6z
	 M199,98.2c-0.2-0.1-0.4-0.1-0.6-0.1c-0.8,0-1.5,0.7-1.5,1.5c0,0.8,0.7,1.5,1.5,1.5c0.2,0,0.4,0,0.6-0.1V98.2z M199,117.8
	c-0.2-0.1-0.4-0.1-0.7-0.1c-1,0-1.8,0.8-1.8,1.8c0,1,0.8,1.8,1.8,1.8c0.2,0,0.5,0,0.7-0.1V117.8L199,117.8z M199,137.5
	c-0.2-0.1-0.4-0.1-0.7-0.1c-1.1,0-2,0.9-2,2c0,0,0,0,0,0c0,1.1,0.9,2,2,2c0,0,0,0,0,0c0.2,0,0.4,0,0.7-0.1V137.5L199,137.5z
	 M199,157.1c-0.2-0.1-0.4-0.1-0.7-0.1c-1.2,0-2.2,1-2.3,2.2c0,0,0,0,0,0.1c0,1.3,1,2.3,2.3,2.3c0.2,0,0.4,0,0.7-0.1V157.1L199,157.1
	z M199,176.8c-0.2-0.1-0.4-0.1-0.7-0.1c-1.4,0-2.5,1.1-2.5,2.5c0,0,0,0,0,0c0,1.4,1.1,2.5,2.5,2.5c0,0,0,0,0,0c0.2,0,0.4,0,0.7-0.1
	V176.8z M199,196.5c-0.2-0.1-0.4-0.1-0.7-0.1c-1.5,0-2.7,1.2-2.7,2.7c0,1.5,1.2,2.7,2.7,2.7c0.2,0,0.4,0,0.7-0.1V196.5z M199,216.1
	c-0.2,0-0.4-0.1-0.7-0.1c-1.6,0-2.9,1.3-2.9,2.9c0,1.6,1.3,2.9,2.9,2.9c0.2,0,0.4,0,0.7-0.1V216.1L199,216.1z M199,235.9
	c-1.7-0.4-3.3,0.7-3.7,2.4c0,0.2-0.1,0.4-0.1,0.7c0,1.7,1.4,3.1,3.1,3.1c0.2,0,0.4,0,0.7-0.1V235.9z M199,255.6
	c-0.2,0-0.4-0.1-0.6-0.1c-1.8,0-3.2,1.4-3.3,3.2c0,0,0,0,0,0.1c0,1.8,1.4,3.2,3.2,3.3c0,0,0,0,0.1,0c0.2,0,0.4,0,0.6-0.1V255.6z
	 M199,275.4c-0.2,0-0.4-0.1-0.6-0.1c-1.8,0-3.3,1.5-3.3,3.3c0,1.8,1.5,3.3,3.3,3.3c0.2,0,0.4,0,0.6-0.1V275.4L199,275.4z M199,295.2
	c-0.2,0-0.4-0.1-0.7-0.1c-1.9,0-3.4,1.5-3.4,3.4s1.5,3.4,3.4,3.4c0.2,0,0.4,0,0.7-0.1V295.2L199,295.2z M199,315.1
	c-0.2,0-0.4-0.1-0.7-0.1c-1.9,0-3.4,1.5-3.4,3.4c0,1.9,1.5,3.4,3.4,3.4c0.2,0,0.4,0,0.7-0.1V315.1L199,315.1z M199,335
	c-0.2,0-0.4-0.1-0.7-0.1c-1.9,0-3.4,1.5-3.4,3.4s1.5,3.4,3.4,3.4c0.2,0,0.4,0,0.7-0.1V335L199,335z M199,355c-0.2,0-0.4-0.1-0.7-0.1
	c-1.8,0-3.4,1.5-3.4,3.3c0,0,0,0,0,0c0,1.8,1.5,3.4,3.3,3.4c0,0,0,0,0,0c0.2,0,0.4,0,0.7-0.1L199,355L199,355z M199,375
	c-0.2,0-0.4-0.1-0.6-0.1c-1.8,0-3.2,1.4-3.3,3.2c0,0,0,0,0,0.1c0,1.8,1.4,3.2,3.2,3.3c0,0,0,0,0.1,0c0.2,0,0.4,0,0.6-0.1V375z
	 M199,395.1c-1.7-0.4-3.3,0.7-3.7,2.4c0,0.2-0.1,0.4-0.1,0.7c0,1.7,1.4,3.1,3.1,3.1c0.2,0,0.4,0,0.7-0.1V395.1L199,395.1z
	 M199,415.2c-0.2,0-0.4-0.1-0.7-0.1c-1.6,0-2.9,1.3-2.9,2.9s1.3,2.9,2.9,2.9c0.2,0,0.4,0,0.7-0.1V415.2L199,415.2z M199,435.2
	c-0.2-0.1-0.4-0.1-0.6-0.1c-1.5,0-2.7,1.2-2.8,2.7c0,0,0,0,0,0.1c0,1.5,1.2,2.7,2.7,2.8c0,0,0,0,0.1,0c0.2,0,0.4,0,0.6-0.1V435.2z
	 M199,455.4c-0.2-0.1-0.4-0.1-0.6-0.1c-1.4,0-2.5,1.2-2.5,2.5c0,1.4,1.2,2.5,2.5,2.5c0.2,0,0.4,0,0.6-0.1V455.4L199,455.4z
	 M199,475.5c-0.2-0.1-0.4-0.1-0.6-0.1c-1.3,0-2.3,1-2.3,2.3c0,1.3,1,2.3,2.3,2.3c0.2,0,0.4,0,0.6-0.1V475.5z M199,495.7
	c-0.2-0.1-0.4-0.1-0.6-0.1c-1.1,0-2,0.9-2,2c0,1.1,0.9,2,2,2c0.2,0,0.4,0,0.6-0.1V495.7z M199,515.9c-0.2-0.1-0.4-0.1-0.7-0.1
	c-1,0-1.8,0.8-1.8,1.8c0,1,0.8,1.8,1.8,1.8c0.2,0,0.5,0,0.7-0.1V515.9z M199,536.1c-0.2-0.1-0.4-0.1-0.6-0.1c-0.8,0-1.5,0.7-1.5,1.5
	c0,0.8,0.7,1.5,1.5,1.5c0.2,0,0.4,0,0.6-0.1V536.1L199,536.1z M199,556.3c-0.2-0.1-0.4-0.2-0.6-0.2c-0.7,0-1.2,0.6-1.2,1.2
	c0,0.7,0.6,1.2,1.2,1.2c0.2,0,0.5-0.1,0.6-0.2V556.3z M199,576.6c-0.2-0.2-0.4-0.3-0.6-0.3c-0.5,0-0.9,0.4-0.9,0.9
	c0,0.5,0.4,0.9,0.9,0.9c0.2,0,0.5-0.1,0.6-0.3V576.6L199,576.6z M198.4,20.2c0,0,0.3-0.1,0.3-0.3c0-0.2-0.1-0.3-0.3-0.3
	c-0.2,0-0.3,0.1-0.3,0.3C198.1,20.1,198.2,20.2,198.4,20.2z M198.3,40.5c0.3,0,0.6-0.3,0.6-0.6c0-0.3-0.3-0.6-0.6-0.6
	c-0.3,0-0.6,0.3-0.6,0.6C197.7,40.2,198,40.5,198.3,40.5L198.3,40.5z M198.3,597.7c0.3,0,0.6-0.3,0.6-0.6c0-0.3-0.3-0.6-0.6-0.6
	c-0.3,0-0.6,0.3-0.6,0.6C197.7,597.5,198,597.7,198.3,597.7z M198.7,617c0,0.2-0.3,0.3-0.3,0.3c-0.2,0-0.3-0.2-0.3-0.3
	c0-0.2,0.2-0.3,0.3-0.3S198.7,616.9,198.7,617z"/>
</svg>
